<svg id="icons" enable-background="new 0 0 64 64" height="512" viewBox="0 0 64 64" width="512" xmlns="http://www.w3.org/2000/svg"><path d="m44.506 3h-3.996v-.5c0-1.379-1.121-2.5-2.5-2.5s-2.5 1.121-2.5 2.5v.5h-3.002v-.5c0-1.379-1.121-2.5-2.5-2.5s-2.5 1.121-2.5 2.5v.5h-3v-.5c0-1.379-1.121-2.5-2.5-2.5s-2.5 1.121-2.5 2.5v.5h-3.002v-.5c0-1.379-1.121-2.5-2.5-2.5s-2.5 1.121-2.5 2.5v.5h-4c-.553 0-1 .447-1 1 0 .011.006.019.006.029v52.965 6.006c0 .553.447 1 1 1h36.992c.553 0 1-.447 1-1l.002-6.006v-52.994c0-.553-.447-1-1-1zm-6.996-.5c0-.275.225-.5.5-.5s.5.225.5.5v3c0 .275-.225.5-.5.5s-.5-.225-.5-.5zm-8.002 0c0-.275.225-.5.5-.5s.5.225.5.5v3c0 .275-.225.5-.5.5s-.5-.225-.5-.5zm-8 0c0-.275.225-.5.5-.5s.5.225.5.5v3c0 .275-.225.5-.5.5s-.5-.225-.5-.5zm-8.002 0c0-.275.225-.5.5-.5s.5.225.5.5v3c0 .275-.225.5-.5.5s-.5-.225-.5-.5zm29.998 59.5h-34.992v-1.002h34.993zm.001-3.002h-34.993v-1.004h34.994zm.001-3.004h-34.994v-50.994h2.994v.5c0 1.379 1.121 2.5 2.5 2.5s2.5-1.121 2.5-2.5v-.5h3.002v.5c0 1.379 1.121 2.5 2.5 2.5s2.5-1.121 2.5-2.5v-.5h3v.5c0 1.379 1.121 2.5 2.5 2.5s2.5-1.121 2.5-2.5v-.5h3.002v.5c0 1.379 1.121 2.5 2.5 2.5s2.5-1.121 2.5-2.5v-.5h2.996z"/><path d="m14.544 33.002h-.011c-.552 0-.994.447-.994 1s.452 1 1.005 1c.552 0 1-.447 1-1s-.448-1-1-1z"/><path d="m18.514 33.002c-.553 0-1 .447-1 1s.447 1 1 1h18.006c.553 0 1-.447 1-1s-.447-1-1-1z"/><path d="m14.544 38.003h-.011c-.552 0-.994.447-.994 1s.452 1 1.005 1c.552 0 1-.447 1-1s-.448-1-1-1z"/><path d="m18.514 38.003c-.553 0-1 .447-1 1s.447 1 1 1h14.002c.553 0 1-.447 1-1s-.447-1-1-1z"/><path d="m14.544 43.004h-.011c-.552 0-.994.447-.994 1s.452 1 1.005 1c.552 0 1-.447 1-1s-.448-1-1-1z"/><path d="m37.521 43.004h-19.007c-.553 0-1 .447-1 1s.447 1 1 1h19.008c.553 0 1-.447 1-1s-.448-1-1.001-1z"/><path d="m14.544 48.005h-.011c-.552 0-.994.447-.994 1s.452 1 1.005 1c.552 0 1-.447 1-1s-.448-1-1-1z"/><path d="m33.518 48.005h-15.004c-.553 0-1 .447-1 1s.447 1 1 1h15.004c.553 0 1-.447 1-1s-.448-1-1-1z"/><path d="m54.494 9.994c0-1.654-1.346-3-3-3s-3 1.346-3 3v46.012c0 .031.015.058.018.088.006.067.02.131.04.197s.044.127.076.187c.015.026.017.057.034.083l1.832 2.748v.697c0 .553.447 1 1 1s1-.447 1-1v-.697l1.832-2.748c.018-.026.02-.056.034-.083.032-.06.057-.12.076-.187.021-.066.034-.13.04-.197.003-.03.018-.057.018-.088v-44.012c.552 0 1 .448 1 1v18.006c0 .553.447 1 1 1s1-.447 1-1v-18.006c0-1.654-1.346-3-3-3zm-2 45.709-1 1.5-1-1.5v-.697h2zm0-2.697h-2v-26.006h2zm0-28.006h-2v-15.006c0-.552.448-1 1-1s1 .448 1 1z"/><path d="m36.521 27.001c0-.553-.447-1-1-1h-.011v-1.504c0-.005-.003-.009-.003-.014-.007-4.893-3.734-8.93-8.499-9.431v-.054c0-.553-.447-1-1-1s-1 .447-1 1v.054c-4.744.499-8.456 4.503-8.496 9.366-.002.027-.016.051-.016.078v1.504c-.553 0-1 .447-1 1s.447 1 1 1h19.025c.553.001 1-.446 1-.999zm-3.011-1h-15.014v-1.444c.001-.021.012-.038.012-.059 0-4.135 3.364-7.499 7.5-7.499s7.5 3.364 7.5 7.499c0 .004.002.006.002.01z"/><path d="m26.008 17.987c-.553 0-1 .447-1 1s.447 1 1 1c2.487 0 4.512 2.023 4.512 4.511 0 .553.447 1 1 1s1-.447 1-1c0-3.59-2.921-6.511-6.512-6.511z"/></svg>